<?xml version="1.0" encoding="utf-8"?>
<!-- Generator: Adobe Illustrator 16.0.0, SVG Export Plug-In . SVG Version: 6.00 Build 0)  -->
<!DOCTYPE svg PUBLIC "-//W3C//DTD SVG 1.1//EN" "http://www.w3.org/Graphics/SVG/1.1/DTD/svg11.dtd">
<svg version="1.1" id="Mail" xmlns="http://www.w3.org/2000/svg" xmlns:xlink="http://www.w3.org/1999/xlink" x="0px" y="0px"
	 width="841.889px" height="595.281px" viewBox="0 0 841.889 595.281" enable-background="new 0 0 841.889 595.281"
	 xml:space="preserve">
<path d="M170.154,157.333c14.524,7.798,215.729,115.901,223.229,119.919c7.501,4.019,17.204,5.923,26.967,5.923
	c9.762,0,19.465-1.904,26.966-5.923c7.5-4.019,208.705-112.121,223.229-119.919c14.555-7.828,28.306-38.276,1.607-38.276H168.575
	C141.877,119.056,155.628,149.505,170.154,157.333z M677.302,222.903c-16.519,8.602-219.867,114.562-229.986,119.859
	c-10.12,5.298-17.204,5.923-26.966,5.923c-9.763,0-16.847-0.625-26.967-5.923c-10.119-5.298-212.307-111.288-228.825-119.89
	c-11.608-6.071-11.489,1.042-11.489,6.519s0,217.069,0,217.069c0,12.501,16.847,29.764,29.764,29.764h476.225
	c12.917,0,29.764-17.263,29.764-29.764c0,0,0-211.563,0-217.04S688.94,216.831,677.302,222.903z"/>
</svg>
