<?xml version="1.0" encoding="utf-8"?>
<!-- Generator: Adobe Illustrator 16.0.0, SVG Export Plug-In . SVG Version: 6.00 Build 0)  -->
<!DOCTYPE svg PUBLIC "-//W3C//DTD SVG 1.1//EN" "http://www.w3.org/Graphics/SVG/1.1/DTD/svg11.dtd">
<svg version="1.1" id="Layer_1" xmlns="http://www.w3.org/2000/svg" xmlns:xlink="http://www.w3.org/1999/xlink" x="0px" y="0px"
	 width="481px" height="500px" viewBox="66.5 66.5 481 500" enable-background="new 66.5 66.5 481 500" xml:space="preserve">
<g>
	<path fill="#FFFFFF" d="M116.06,201.28c1.151,0,2.234,0.447,3.048,1.261c1.163,1.163,1.555,2.858,1.022,4.431l-0.679,2.013
		l-2.014,0.679c-0.453,0.153-0.918,0.227-1.401,0.227c-1.15,0-2.228-0.447-3.036-1.254c-1.683-1.683-1.683-4.418,0-6.102
		C113.826,201.733,114.909,201.28,116.06,201.28 M339.078,404.396l1.903,0.942c1.487,0.741,2.412,2.216,2.412,3.862
		c0,2.381-1.935,4.314-4.315,4.314c-2.38,0-4.314-1.934-4.314-4.314c0-1.641,0.925-3.121,2.411-3.862L339.078,404.396
		 M116.06,194.548c-2.827,0-5.655,1.077-7.809,3.237c-4.314,4.315-4.314,11.31,0,15.619c2.154,2.154,4.97,3.225,7.791,3.225
		c1.199,0,2.399-0.196,3.543-0.582l71.396,71.396h104.652l38.544,38.544v73.323c-3.642,1.806-6.151,5.551-6.151,9.891
		c0,6.102,4.945,11.047,11.047,11.047s11.047-4.945,11.047-11.047c0-4.34-2.51-8.085-6.15-9.891V321.93l-44.278-44.278H195.038
		l-68.525-68.525c1.297-3.85,0.422-8.274-2.644-11.341C121.714,195.631,118.887,194.548,116.06,194.548L116.06,194.548z"/>
	<path fill="#FFFFFF" d="M215.044,107.516c2.381,0,4.315,1.934,4.315,4.314c0,1.64-0.924,3.121-2.412,3.855l-1.903,0.942
		l-1.903-0.942c-1.487-0.74-2.411-2.215-2.411-3.855C210.73,109.449,212.67,107.516,215.044,107.516 M370.492,438.669l1.903,0.942
		c1.487,0.74,2.412,2.215,2.412,3.855c0,2.381-1.935,4.314-4.315,4.314c-2.38,0-4.314-1.934-4.314-4.314
		c0-1.641,0.924-3.121,2.411-3.855L370.492,438.669 M215.044,100.783c-6.102,0-11.046,4.945-11.046,11.047
		c0,4.339,2.509,8.084,6.15,9.89v91.311l37.191,35.863h64.823l53.434,53.434v131.262c-3.642,1.806-6.15,5.551-6.15,9.89
		c0,6.102,4.944,11.047,11.046,11.047s11.047-4.945,11.047-11.047c0-4.339-2.509-8.084-6.15-9.89V298.27l-59.175-59.174h-64.92
		l-31.353-30.233v-87.149c3.642-1.806,6.151-5.551,6.151-9.89C226.091,105.729,221.146,100.783,215.044,100.783L215.044,100.783z"/>
	<path fill="#FFFFFF" d="M494.875,203.422c1.151,0,2.234,0.447,3.048,1.261c0.814,0.814,1.261,1.897,1.261,3.048
		s-0.446,2.234-1.261,3.048c-0.808,0.808-1.885,1.254-3.035,1.254c-0.478,0-0.948-0.08-1.401-0.226l-2.014-0.68l-0.68-2.013
		c-0.525-1.573-0.134-3.268,1.022-4.431C492.642,203.875,493.725,203.422,494.875,203.422 M401.906,470.492l1.903,0.943
		c1.487,0.74,2.411,2.215,2.411,3.855c0,2.38-1.934,4.314-4.314,4.314s-4.314-1.935-4.314-4.314c0-1.641,0.924-3.121,2.411-3.862
		L401.906,470.492 M494.875,196.69c-2.827,0-5.654,1.077-7.809,3.237c-3.066,3.066-3.941,7.491-2.644,11.34l-52.118,52.118v66.096
		l-35.294,35.294v100.637c-3.642,1.806-6.15,5.551-6.15,9.89c0,6.102,4.944,11.047,11.046,11.047s11.047-4.945,11.047-11.047
		c0-4.339-2.509-8.084-6.15-9.89v-96.586l35.294-35.294v-66.096l49.247-49.248c1.151,0.386,2.351,0.582,3.544,0.582
		c2.821,0,5.643-1.071,7.791-3.225c4.314-4.315,4.314-11.31,0-15.619C500.53,197.773,497.703,196.69,494.875,196.69L494.875,196.69z
		"/>
	<path fill="#FFFFFF" d="M146.966,155.484c1.15,0,2.234,0.447,3.048,1.261c1.163,1.163,1.554,2.858,1.022,4.431l-0.68,2.013
		l-2.007,0.679c-0.453,0.153-0.918,0.227-1.395,0.227c-1.151,0-2.228-0.447-3.036-1.254c-0.814-0.814-1.261-1.897-1.261-3.048
		s0.447-2.234,1.261-3.048S145.815,155.484,146.966,155.484 M208.478,242.896c1.151,0,2.228,0.447,3.036,1.254
		c0.814,0.814,1.261,1.897,1.261,3.048s-0.447,2.234-1.261,3.048s-1.897,1.261-3.048,1.261c-1.15,0-2.233-0.447-3.047-1.261
		c-1.163-1.163-1.555-2.858-1.022-4.431l0.68-2.014l2.013-0.679C207.529,242.969,208,242.896,208.478,242.896 M146.966,148.752
		c-2.828,0-5.655,1.077-7.809,3.237c-4.315,4.315-4.315,11.31,0,15.619c2.154,2.154,4.969,3.225,7.791,3.225
		c1.2,0,2.399-0.196,3.543-0.582l16.812,16.812v25.906L198,243.667c-1.297,3.85-0.422,8.274,2.644,11.34
		c2.154,2.154,4.982,3.238,7.809,3.238c2.828,0,5.655-1.077,7.81-3.238c4.314-4.314,4.314-11.31,0-15.618
		c-2.154-2.154-4.97-3.225-7.791-3.225c-1.2,0-2.399,0.196-3.543,0.581l-27.828-27.827v-25.906l-19.682-19.682
		c1.298-3.85,0.422-8.274-2.644-11.341C152.621,149.829,149.793,148.752,146.966,148.752L146.966,148.752z"/>
	<path fill="#FFFFFF" d="M84.077,294.788c2.38,0,4.314,1.934,4.314,4.314c0,1.64-0.924,3.121-2.411,3.855l-1.903,0.943l-1.903-0.943
		c-1.487-0.734-2.412-2.215-2.412-3.855C79.762,296.721,81.702,294.788,84.077,294.788 M120.35,375.088
		c1.151,0,2.228,0.447,3.036,1.255c0.814,0.814,1.261,1.897,1.261,3.047c0,1.151-0.447,2.234-1.261,3.048s-1.897,1.261-3.048,1.261
		c-1.15,0-2.233-0.447-3.047-1.261c-1.163-1.163-1.555-2.858-1.022-4.431l0.68-2.014l2.013-0.679
		C119.401,375.162,119.873,375.088,120.35,375.088 M84.077,288.056c-6.102,0-11.047,4.945-11.047,11.046
		c0,4.339,2.509,8.084,6.151,9.89v36.175l30.698,30.698c-1.297,3.85-0.422,8.274,2.644,11.34c2.154,2.154,4.981,3.237,7.809,3.237
		c2.827,0,5.655-1.077,7.809-3.237c4.314-4.314,4.314-11.31,0-15.618c-2.154-2.154-4.97-3.225-7.791-3.225
		c-1.199,0-2.399,0.196-3.543,0.581l-27.828-27.828v-32.118c3.642-1.805,6.151-5.551,6.151-9.89
		C95.123,293,90.178,288.056,84.077,288.056L84.077,288.056z"/>
	<path fill="#FFFFFF" d="M425.572,129.547c2.381,0,4.314,1.934,4.314,4.315c0,1.64-0.924,3.121-2.411,3.855l-1.903,0.942
		l-1.903-0.942c-1.486-0.734-2.411-2.216-2.411-3.855C421.258,131.481,423.198,129.547,425.572,129.547 M403.541,305.252
		l1.903,0.943c1.486,0.734,2.411,2.215,2.411,3.855c0,2.381-1.935,4.314-4.314,4.314c-2.381,0-4.315-1.934-4.315-4.314
		c0-1.64,0.925-3.121,2.411-3.855L403.541,305.252 M425.572,122.815c-6.102,0-11.046,4.945-11.046,11.047
		c0,4.339,2.509,8.084,6.15,9.89v43.134l-22.032,22.032v91.255c-3.642,1.806-6.15,5.551-6.15,9.89
		c0,6.102,4.944,11.046,11.047,11.046c6.102,0,11.046-4.945,11.046-11.046c0-4.339-2.509-8.084-6.15-9.89v-87.204l22.032-22.032
		v-47.191c3.642-1.806,6.15-5.551,6.15-9.89C436.619,127.76,431.674,122.815,425.572,122.815L425.572,122.815z"/>
	<path fill="#FFFFFF" d="M469.637,162.596c2.381,0,4.314,1.934,4.314,4.314c0,1.64-0.924,3.121-2.411,3.855l-1.903,0.942
		l-1.903-0.942c-1.487-0.741-2.411-2.215-2.411-3.855C465.322,164.529,467.262,162.596,469.637,162.596 M444.386,209.848
		c0.478,0,0.948,0.08,1.401,0.226l2.014,0.68l0.679,2.013c0.526,1.573,0.135,3.268-1.021,4.431
		c-0.814,0.814-1.897,1.261-3.048,1.261s-2.234-0.447-3.048-1.261c-1.684-1.683-1.684-4.419,0-6.102
		C442.158,210.289,443.235,209.848,444.386,209.848 M469.637,155.863c-6.102,0-11.047,4.945-11.047,11.047
		c0,4.339,2.51,8.084,6.15,9.89v10.086l-16.812,16.812c-1.15-0.386-2.35-0.581-3.543-0.581c-2.821,0-5.643,1.071-7.791,3.225
		c-4.314,4.314-4.314,11.31,0,15.618c2.154,2.154,4.981,3.237,7.809,3.237c2.828,0,5.655-1.077,7.81-3.237
		c3.066-3.066,3.941-7.491,2.644-11.34l19.683-19.682v-14.143c3.641-1.806,6.15-5.551,6.15-9.89
		C480.684,160.809,475.738,155.863,469.637,155.863L469.637,155.863z"/>
	<path fill="#FFFFFF" d="M381.509,107.516c2.381,0,4.314,1.934,4.314,4.314c0,1.64-0.924,3.121-2.411,3.855l-1.903,0.942
		l-1.903-0.942c-1.487-0.74-2.411-2.215-2.411-3.855C377.194,109.449,379.134,107.516,381.509,107.516 M271.379,195.613
		c1.641,0,3.122,0.924,3.856,2.411l0.942,1.903l-0.942,1.903c-0.741,1.487-2.215,2.412-3.856,2.412c-2.38,0-4.314-1.934-4.314-4.315
		C267.064,197.547,268.999,195.613,271.379,195.613 M381.509,100.783c-6.102,0-11.047,4.945-11.047,11.047
		c0,4.339,2.509,8.084,6.15,9.89v21.102l-52.209,52.209h-43.134c-1.805-3.641-5.551-6.15-9.89-6.15
		c-6.102,0-11.047,4.945-11.047,11.046c0,6.102,4.945,11.047,11.047,11.047c4.339,0,8.084-2.509,9.89-6.151h47.191l57.951-57.95
		v-25.159c3.641-1.806,6.15-5.551,6.15-9.89C392.555,105.729,387.61,100.783,381.509,100.783L381.509,100.783z"/>
	<path fill="#FFFFFF" d="M312.206,93.262c1.15,0,2.233,0.447,3.048,1.261c1.162,1.163,1.554,2.858,1.021,4.431l-0.68,2.013
		l-2.013,0.68c-0.453,0.153-0.918,0.227-1.401,0.227c-1.151,0-2.229-0.447-3.036-1.255c-0.813-0.814-1.261-1.897-1.261-3.048
		c0-1.15,0.447-2.233,1.261-3.048C309.96,93.709,311.055,93.262,312.206,93.262 M271.379,162.565c1.641,0,3.122,0.924,3.856,2.411
		l0.942,1.903l-0.942,1.903c-0.741,1.487-2.215,2.411-3.856,2.411c-2.38,0-4.314-1.934-4.314-4.314
		C267.064,164.499,268.999,162.565,271.379,162.565 M312.206,86.53c-2.828,0-5.655,1.077-7.81,3.238
		c-4.314,4.314-4.314,11.31,0,15.618c2.154,2.154,4.97,3.225,7.791,3.225c1.199,0,2.398-0.196,3.543-0.582l25.802,25.802
		l-28.151,28.152h-32.118c-1.805-3.642-5.551-6.15-9.89-6.15c-6.102,0-11.047,4.945-11.047,11.046s4.945,11.046,11.047,11.046
		c4.339,0,8.084-2.509,9.89-6.15h36.176l37.943-37.944l-32.724-32.724c1.298-3.85,0.423-8.274-2.644-11.34
		C317.86,87.613,315.033,86.53,312.206,86.53L312.206,86.53z"/>
	<path fill="#FFFFFF" d="M257.125,93.262c1.151,0,2.234,0.447,3.048,1.261c1.163,1.163,1.555,2.858,1.022,4.431l-0.679,2.013
		l-2.013,0.68c-0.453,0.153-0.918,0.227-1.402,0.227c-1.15,0-2.228-0.447-3.035-1.255c-1.683-1.683-1.683-4.418,0-6.102
		C254.892,93.715,255.975,93.262,257.125,93.262 M285.59,121.72c1.15,0,2.228,0.447,3.036,1.255c1.683,1.683,1.683,4.418,0,6.102
		c-0.814,0.814-1.897,1.261-3.048,1.261c-1.151,0-2.234-0.447-3.048-1.261c-1.163-1.163-1.555-2.858-1.022-4.431l0.679-2.014
		l2.014-0.679C284.641,121.793,285.112,121.72,285.59,121.72 M257.125,86.53c-2.827,0-5.655,1.077-7.809,3.238
		c-4.314,4.314-4.314,11.31,0,15.618c2.154,2.154,4.97,3.225,7.791,3.225c1.199,0,2.399-0.196,3.543-0.582l14.461,14.462
		c-1.297,3.85-0.422,8.274,2.644,11.34c2.154,2.154,4.981,3.237,7.809,3.237c2.827,0,5.655-1.077,7.809-3.237
		c4.315-4.315,4.315-11.31,0-15.618c-2.154-2.154-4.97-3.226-7.791-3.226c-1.199,0-2.399,0.196-3.543,0.582l-14.461-14.461
		c1.297-3.85,0.422-8.274-2.644-11.34C262.781,87.613,259.953,86.53,257.125,86.53L257.125,86.53z"/>
	<path fill="#FFFFFF" d="M373.699,192.406c1.15,0,2.234,0.447,3.048,1.261c1.684,1.683,1.684,4.419,0,6.102
		c-0.808,0.808-1.885,1.254-3.035,1.254c-0.478,0-0.949-0.08-1.401-0.227l-2.014-0.679l-0.68-2.014
		c-0.526-1.573-0.135-3.268,1.022-4.431C371.466,192.859,372.549,192.406,373.699,192.406 M373.718,242.896
		c1.15,0,2.228,0.447,3.035,1.254c1.684,1.683,1.684,4.419,0,6.102c-0.813,0.814-1.896,1.261-3.048,1.261
		c-1.15,0-2.233-0.446-3.047-1.261c-1.163-1.163-1.555-2.858-1.022-4.431l0.68-2.014l2.013-0.679
		C372.77,242.969,373.24,242.896,373.718,242.896 M373.699,185.674c-2.827,0-5.654,1.077-7.809,3.238
		c-3.066,3.066-3.941,7.491-2.645,11.34l-8.666,8.666v26.089l8.666,8.666c-1.297,3.849-0.422,8.274,2.645,11.34
		c2.154,2.154,4.981,3.237,7.809,3.237c2.828,0,5.655-1.077,7.81-3.237c4.314-4.314,4.314-11.31,0-15.618
		c-2.154-2.154-4.976-3.226-7.791-3.226c-1.199,0-2.399,0.196-3.543,0.582l-5.796-5.795v-17.975l5.796-5.796
		c1.15,0.386,2.35,0.582,3.543,0.582c2.821,0,5.643-1.071,7.791-3.225c4.314-4.314,4.314-11.31,0-15.618
		C379.354,186.757,376.527,185.674,373.699,185.674L373.699,185.674z"/>
	<path fill="#FFFFFF" d="M102.902,247.486c1.15,0,2.233,0.447,3.047,1.261c1.163,1.163,1.555,2.858,1.022,4.431l-0.68,2.013
		l-2.013,0.679c-0.453,0.153-0.918,0.227-1.402,0.227c-1.15,0-2.228-0.447-3.035-1.254c-0.814-0.814-1.261-1.897-1.261-3.048
		s0.447-2.234,1.261-3.048S101.751,247.486,102.902,247.486 M271.318,316.789c2.381,0,4.315,1.934,4.315,4.314
		s-1.934,4.314-4.315,4.314c-1.64,0-3.121-0.924-3.855-2.411l-0.942-1.903l0.942-1.903
		C268.197,317.713,269.678,316.789,271.318,316.789 M102.902,240.754c-2.828,0-5.655,1.077-7.809,3.237
		c-4.315,4.315-4.315,11.31,0,15.618c2.154,2.154,4.969,3.226,7.791,3.226c1.2,0,2.399-0.196,3.543-0.582L170.173,326h91.255
		c1.805,3.641,5.551,6.15,9.89,6.15c6.102,0,11.047-4.945,11.047-11.046s-4.945-11.047-11.047-11.047
		c-4.339,0-8.084,2.509-9.89,6.151H174.23l-60.876-60.875c1.297-3.85,0.422-8.274-2.644-11.341
		C108.557,241.837,105.729,240.754,102.902,240.754L102.902,240.754z"/>
	<path fill="#FFFFFF" d="M516.907,247.486c1.15,0,2.234,0.447,3.048,1.261c1.684,1.683,1.684,4.419,0,6.102
		c-0.808,0.808-1.885,1.255-3.035,1.255c-0.478,0-0.949-0.08-1.401-0.227l-2.014-0.679l-0.68-2.014
		c-0.526-1.573-0.135-3.268,1.022-4.431C514.674,247.939,515.757,247.486,516.907,247.486 M472.286,316.269l1.903,0.942
		c1.487,0.741,2.412,2.216,2.412,3.862c0,2.381-1.935,4.315-4.315,4.315c-2.38,0-4.314-1.934-4.314-4.315
		c0-1.64,0.924-3.121,2.411-3.862L472.286,316.269 M516.907,240.754c-2.827,0-5.654,1.077-7.809,3.237
		c-3.066,3.066-3.941,7.491-2.645,11.341l-39.058,39.058v16.793c-3.642,1.805-6.15,5.551-6.15,9.89
		c0,6.102,4.945,11.047,11.047,11.047s11.046-4.945,11.046-11.047c0-4.339-2.509-8.084-6.15-9.89v-12.736l36.194-36.194
		c1.15,0.386,2.35,0.582,3.543,0.582c2.821,0,5.643-1.071,7.791-3.225c4.314-4.315,4.314-11.31,0-15.619
		C522.562,241.837,519.734,240.754,516.907,240.754L516.907,240.754z"/>
	<path fill="#FFFFFF" d="M304.396,349.867c2.381,0,4.314,1.934,4.314,4.315c0,1.64-0.924,3.121-2.411,3.855l-1.903,0.942
		l-1.903-0.942c-1.487-0.74-2.411-2.215-2.411-3.855C300.082,351.801,302.021,349.867,304.396,349.867 M304.366,537.108
		c2.381,0,4.314,1.935,4.314,4.315c0,2.38-1.934,4.314-4.314,4.314c-1.641,0-3.121-0.925-3.855-2.411l-0.942-1.903l0.942-1.903
		C301.245,538.033,302.726,537.108,304.366,537.108 M304.396,343.135c-6.102,0-11.046,4.945-11.046,11.047
		c0,4.339,2.509,8.084,6.151,9.89v131.262l-50.986,50.985h45.967c1.806,3.642,5.551,6.15,9.89,6.15
		c6.102,0,11.047-4.944,11.047-11.046s-4.945-11.047-11.047-11.047c-4.339,0-8.084,2.509-9.89,6.15h-22.326l37.143-37.143V364.066
		c3.642-1.806,6.15-5.551,6.15-9.89C315.443,348.081,310.498,343.135,304.396,343.135L304.396,343.135z"/>
	<path fill="#FFFFFF" d="M527.924,291.55c1.15,0,2.233,0.447,3.047,1.261c1.684,1.683,1.684,4.419,0,6.102
		c-0.808,0.808-1.885,1.255-3.035,1.255c-0.478,0-0.948-0.08-1.401-0.227l-2.014-0.679l-0.679-2.014
		c-0.526-1.573-0.135-3.268,1.021-4.431C525.689,292.003,526.772,291.55,527.924,291.55 M436.999,492.524l1.903,0.942
		c1.486,0.741,2.411,2.216,2.411,3.862c0,2.381-1.935,4.314-4.315,4.314c-2.38,0-4.314-1.934-4.314-4.314
		c0-1.641,0.925-3.121,2.412-3.862L436.999,492.524 M527.924,284.818c-2.828,0-5.655,1.077-7.81,3.238
		c-3.066,3.066-3.941,7.491-2.644,11.34l-8.666,8.666v41.194H467.61l-35.508,35.508v102.682c-3.642,1.805-6.15,5.551-6.15,9.89
		c0,6.102,4.944,11.047,11.047,11.047c6.102,0,11.046-4.945,11.046-11.047c0-4.339-2.509-8.085-6.15-9.89v-98.624l29.773-29.774
		h46.935v-46.934l5.796-5.796c1.15,0.386,2.35,0.582,3.543,0.582c2.821,0,5.643-1.071,7.791-3.225c4.314-4.315,4.314-11.31,0-15.618
		C533.578,285.901,530.751,284.818,527.924,284.818L527.924,284.818z"/>
	<path fill="#FFFFFF" d="M513.67,382.885c2.381,0,4.314,1.934,4.314,4.314c0,2.381-1.934,4.315-4.314,4.315
		c-1.641,0-3.121-0.924-3.855-2.412l-0.942-1.903l0.942-1.903C510.549,383.809,512.029,382.885,513.67,382.885 M482.653,453.424
		c1.151,0,2.229,0.447,3.036,1.255c1.683,1.683,1.683,4.419,0,6.102c-0.814,0.813-1.897,1.261-3.048,1.261s-2.233-0.447-3.048-1.261
		c-1.163-1.163-1.555-2.858-1.022-4.431l0.68-2.014l2.014-0.68C481.705,453.497,482.177,453.424,482.653,453.424 M513.67,376.153
		c-4.339,0-8.084,2.509-9.89,6.15h-25.159l-15.11,15.111v48.121l8.666,8.666c-1.298,3.85-0.423,8.274,2.644,11.341
		c2.154,2.153,4.981,3.237,7.809,3.237c2.828,0,5.655-1.077,7.81-3.237c4.314-4.315,4.314-11.311,0-15.619
		c-2.154-2.153-4.976-3.225-7.791-3.225c-1.199,0-2.398,0.195-3.543,0.581l-5.796-5.796v-40.006l9.37-9.37h21.102
		c1.805,3.641,5.551,6.15,9.89,6.15c6.102,0,11.047-4.944,11.047-11.046C524.717,381.11,519.771,376.153,513.67,376.153
		L513.67,376.153z"/>
	<path fill="#FFFFFF" d="M395.75,518.296c1.15,0,2.228,0.447,3.035,1.255c0.814,0.813,1.261,1.896,1.261,3.048
		c0,1.15-0.446,2.233-1.261,3.048c-0.813,0.813-1.897,1.261-3.048,1.261s-2.233-0.447-3.048-1.261
		c-1.162-1.163-1.554-2.858-1.021-4.432l0.679-2.013l2.014-0.68C394.801,518.369,395.272,518.296,395.75,518.296 M337.444,536.589
		l1.903,0.942c1.487,0.74,2.411,2.215,2.411,3.855c0,2.381-1.934,4.314-4.314,4.314s-4.314-1.934-4.314-4.314
		c0-1.641,0.924-3.121,2.411-3.855L337.444,536.589 M332.549,452.494v79.015c-3.642,1.806-6.15,5.551-6.15,9.891
		c0,6.102,4.944,11.046,11.046,11.046s11.047-4.944,11.047-11.046c0-4.34-2.509-8.085-6.15-9.891v-55.373l42.938,42.938
		c-1.297,3.85-0.422,8.274,2.644,11.341c2.154,2.153,4.982,3.237,7.81,3.237s5.655-1.077,7.81-3.237
		c4.314-4.315,4.314-11.311,0-15.619c-2.154-2.154-4.97-3.225-7.791-3.225c-1.2,0-2.399,0.195-3.544,0.581L332.549,452.494
		L332.549,452.494z"/>
	<path fill="#FFFFFF" d="M271.349,360.883c2.381,0,4.314,1.934,4.314,4.315c0,1.64-0.924,3.121-2.411,3.855l-1.903,0.942
		l-1.903-0.942c-1.487-0.741-2.411-2.215-2.411-3.855C267.034,362.817,268.974,360.883,271.349,360.883 M235.082,518.296
		c0.477,0,0.948,0.08,1.401,0.227l2.014,0.68l0.679,2.013c0.526,1.573,0.135,3.269-1.022,4.432
		c-0.814,0.813-1.897,1.261-3.048,1.261s-2.234-0.447-3.048-1.261c-0.814-0.814-1.261-1.897-1.261-3.048
		c0-1.151,0.447-2.234,1.261-3.048C232.854,518.736,233.931,518.296,235.082,518.296 M271.349,354.151
		c-6.102,0-11.047,4.945-11.047,11.047c0,4.339,2.509,8.084,6.151,9.89v109.229l-27.828,27.828c-1.15-0.386-2.35-0.582-3.543-0.582
		c-2.821,0-5.643,1.071-7.791,3.226c-4.314,4.314-4.314,11.31,0,15.618c2.154,2.154,4.982,3.237,7.809,3.237
		c2.828,0,5.655-1.077,7.81-3.237c3.066-3.065,3.941-7.49,2.644-11.34l30.698-30.698V375.082c3.642-1.806,6.151-5.551,6.151-9.89
		C282.395,359.096,277.45,354.151,271.349,354.151L271.349,354.151z"/>
	<path fill="#FFFFFF" d="M124.934,324.598c1.15,0,2.234,0.447,3.048,1.261c1.163,1.163,1.555,2.858,1.022,4.431l-0.679,2.014
		l-2.014,0.679c-0.453,0.153-0.918,0.227-1.401,0.227c-1.15,0-2.228-0.447-3.036-1.255c-1.683-1.683-1.683-4.418,0-6.102
		C122.7,325.051,123.783,324.598,124.934,324.598 M230.51,430.168c1.15,0,2.228,0.446,3.036,1.255c1.683,1.683,1.683,4.418,0,6.102
		c-0.814,0.813-1.897,1.261-3.048,1.261s-2.234-0.447-3.048-1.261c-1.163-1.163-1.554-2.858-1.022-4.431l0.679-2.014l2.014-0.68
		C229.561,430.241,230.032,430.168,230.51,430.168 M124.934,317.866c-2.827,0-5.655,1.077-7.809,3.237
		c-4.314,4.314-4.314,11.31,0,15.618c2.154,2.154,4.969,3.225,7.791,3.225c1.199,0,2.399-0.196,3.543-0.581l91.573,91.574
		c-1.297,3.849-0.422,8.273,2.644,11.34c2.154,2.154,4.981,3.237,7.809,3.237s5.655-1.077,7.809-3.237
		c4.314-4.314,4.314-11.31,0-15.618c-2.154-2.154-4.969-3.226-7.791-3.226c-1.2,0-2.399,0.196-3.543,0.582l-91.574-91.574
		c1.297-3.85,0.422-8.274-2.644-11.34C130.588,318.949,127.761,317.866,124.934,317.866L124.934,317.866z"/>
	<path fill="#FFFFFF" d="M205.283,349.837c1.64,0,3.121,0.924,3.855,2.411l0.942,1.903l-0.942,1.903
		c-0.74,1.487-2.215,2.411-3.855,2.411c-2.381,0-4.314-1.934-4.314-4.314S202.902,349.837,205.283,349.837 M238.301,382.365
		l1.903,0.942c1.487,0.741,2.411,2.215,2.411,3.855c0,2.381-1.934,4.315-4.314,4.315c-2.381,0-4.315-1.934-4.315-4.315
		c0-1.64,0.924-3.121,2.412-3.855L238.301,382.365 M205.283,343.105c-6.102,0-11.047,4.945-11.047,11.046
		s4.945,11.047,11.047,11.047c4.339,0,8.084-2.509,9.89-6.151h18.232v18.231c-3.642,1.806-6.151,5.551-6.151,9.89
		c0,6.102,4.945,11.046,11.047,11.046c6.102,0,11.046-4.944,11.046-11.046c0-4.339-2.509-8.084-6.15-9.89v-28.023h-28.024
		C213.361,345.614,209.622,343.105,205.283,343.105L205.283,343.105z"/>
	<path fill="#FFFFFF" d="M157.981,412.727c1.151,0,2.234,0.446,3.048,1.26c1.163,1.163,1.555,2.858,1.022,4.432l-0.679,2.014
		l-2.013,0.679c-0.453,0.153-0.918,0.227-1.402,0.227c-1.15,0-2.228-0.446-3.035-1.255c-0.814-0.814-1.261-1.896-1.261-3.047
		c0-1.151,0.447-2.234,1.261-3.049C155.736,413.173,156.831,412.727,157.981,412.727 M202.033,507.28
		c0.478,0,0.949,0.079,1.402,0.227l2.013,0.679l0.68,2.014c0.526,1.573,0.134,3.268-1.022,4.431
		c-0.814,0.814-1.897,1.261-3.047,1.261c-1.151,0-2.234-0.446-3.048-1.261c-0.814-0.813-1.261-1.897-1.261-3.048
		s0.447-2.233,1.261-3.048C199.806,507.721,200.883,507.28,202.033,507.28 M157.981,405.994c-2.827,0-5.655,1.077-7.809,3.237
		c-4.314,4.314-4.314,11.31,0,15.618c2.154,2.154,4.97,3.226,7.791,3.226c1.199,0,2.399-0.196,3.543-0.582l58.85,58.851
		l-14.786,14.785c-1.15-0.385-2.35-0.581-3.543-0.581c-2.821,0-5.643,1.071-7.791,3.226c-4.314,4.314-4.314,11.31,0,15.618
		c2.154,2.154,4.982,3.237,7.81,3.237c2.827,0,5.655-1.077,7.809-3.237c3.066-3.066,3.941-7.491,2.644-11.341l21.708-21.707
		l-65.771-65.771c1.297-3.85,0.422-8.275-2.644-11.341C163.637,407.077,160.809,405.994,157.981,405.994L157.981,405.994z"/>
	<path fill="#FFFFFF" d="M113.917,423.742c1.151,0,2.234,0.446,3.048,1.261c1.163,1.162,1.555,2.857,1.022,4.431l-0.679,2.014
		l-2.014,0.679c-0.453,0.153-0.918,0.227-1.401,0.227c-1.15,0-2.228-0.446-3.036-1.254c-1.683-1.684-1.683-4.419,0-6.103
		C111.684,424.195,112.767,423.742,113.917,423.742 M164.414,474.232c1.151,0,2.228,0.446,3.036,1.254
		c1.683,1.684,1.683,4.419,0,6.102c-0.814,0.814-1.897,1.261-3.048,1.261c-1.15,0-2.233-0.446-3.047-1.261
		c-1.163-1.162-1.555-2.857-1.022-4.431l0.68-2.014l2.013-0.679C163.465,474.306,163.937,474.232,164.414,474.232 M113.917,417.01
		c-2.827,0-5.655,1.077-7.809,3.238c-4.314,4.314-4.314,11.31,0,15.617c2.154,2.154,4.97,3.226,7.791,3.226
		c1.199,0,2.399-0.195,3.543-0.581l36.494,36.493c-1.297,3.85-0.422,8.274,2.644,11.341c2.154,2.154,4.982,3.237,7.809,3.237
		c2.828,0,5.655-1.077,7.809-3.237c4.315-4.315,4.315-11.311,0-15.618c-2.154-2.154-4.969-3.226-7.791-3.226
		c-1.2,0-2.399,0.195-3.543,0.581l-36.494-36.493c1.297-3.85,0.422-8.274-2.644-11.34
		C119.573,418.094,116.745,417.01,113.917,417.01L113.917,417.01z"/>
</g>
</svg>
