<?xml version="1.0" encoding="UTF-8" standalone="no"?>
<svg width="381px" height="411px" viewBox="0 0 381 411" version="1.1" xmlns="http://www.w3.org/2000/svg" xmlns:xlink="http://www.w3.org/1999/xlink">
    <!-- Generator: Sketch 39 (31667) - http://www.bohemiancoding.com/sketch -->
    <title>Page 1</title>
    <desc>Created with Sketch.</desc>
    <defs></defs>
    <g id="Layout" stroke="none" stroke-width="1" fill="none" fill-rule="evenodd">
        <g id="Landingpage" transform="translate(-829.000000, -282.000000)" fill="#FFFFFF">
            <g id="Page-1" transform="translate(829.000000, 282.000000)">
                <polygon id="Fill-1" points="38.2886463 319 30 310.515298 125.749782 216.758454 125.749782 199.411165 164.758297 160.341385 164.758297 105.636608 180.14476 82.8454106 180.14476 0 192 0 192 86.4884595 176.619432 109.256039 176.619432 165.253892 137.587336 204.323671 137.587336 221.741814"></polygon>
                <polygon id="Fill-2" points="157.824076 304 146 304 146 205.659457 176.165498 169.351188 206.489668 169.351188 255.090616 113 301 113 301 124.857205 260.485498 124.857205 211.88455 181.18482 181.695545 181.18482 157.824076 209.937951"></polygon>
                <polygon id="Fill-3" points="226.622344 384 200.824885 360.52097 200.824885 302.121232 165 271.783093 165 206.789646 182.729482 190.435125 228.168657 190.435125 241.613318 177 250 185.386632 233.079086 202.295544 187.362519 202.295544 176.87474 211.973788 176.87474 266.274574 212.699625 296.618611 212.699625 355.295544 234.601791 375.224115"></polygon>
                <polygon id="Fill-4" points="92.9767197 214 85 205.379988 150.327884 143.321789 150.327884 21 162 21 162 148.446724"></polygon>
                <path d="M152.988144,307 C142.501092,307 134,315.524805 134,326.011856 C134,336.504836 142.524805,345 152.988144,345 C163.504836,345 172,336.504836 172,326.011856 C172,315.501092 163.504836,307 152.988144,307 L152.988144,307 Z" id="Fill-5"></path>
                <path d="M96.0118318,319 C85.501081,319 77,327.548518 77,338.011856 C77,348.504836 85.501081,357 96.0118318,357 C106.504798,357 114.999951,348.504836 114.999951,338.011856 C115.023664,327.548518 106.504798,319 96.0118318,319 L96.0118318,319 Z" id="Fill-6"></path>
                <path d="M104,334.990648 C104,345.669784 88,345.669784 88,334.990648 C88,324.336451 104,324.336451 104,334.990648" id="Fill-7"></path>
                <path d="M152.988144,373 C142.501092,373 134,381.495164 134,391.988144 C134,402.481123 142.524805,411 152.988144,411 C163.504836,411 172,402.481123 172,391.988144 C172,381.495164 163.504836,373 152.988144,373 L152.988144,373 Z" id="Fill-8"></path>
                <path d="M149.987527,384 C145.582164,384 142,387.587153 142,391.992516 C142,396.417836 145.582164,400 149.987527,400 C154.432803,400 158,396.417836 158,391.992516 C158,387.587153 154.432803,384 149.987527,384 L149.987527,384 Z" id="Fill-9"></path>
                <path d="M19.0118565,308 C8.50109204,308 0,316.495164 0,326.988144 C0,337.475195 8.50109204,346 19.0118565,346 C29.5048362,346 38,337.475195 38,326.988144 C38,316.495164 29.5048362,308 19.0118565,308 L19.0118565,308 Z" id="Fill-10"></path>
                <path d="M19.0074836,319 C14.5871531,319 11,322.582685 11,327.002491 C11,331.417315 14.5871531,335 19.0074836,335 C23.3928906,335 27,331.417315 27,327.002491 C27,322.582685 23.3928906,319 19.0074836,319 L19.0074836,319 Z" id="Fill-11"></path>
                <path d="M263.988144,152 C253.501092,152 245,160.501092 245,171.011856 C245,181.504836 253.501092,190 263.988144,190 C274.498908,190 283,181.504836 283,171.011856 C283,160.501092 274.522621,152 263.988144,152 L263.988144,152 Z" id="Fill-12"></path>
                <path d="M259.987527,163 C255.562208,163 252,166.587153 252,171.007484 C252,175.392891 255.562208,179 259.987527,179 C264.412847,179 268,175.392891 268,171.007484 C268,166.587153 264.412847,163 259.987527,163 L259.987527,163 Z" id="Fill-13"></path>
                <path d="M315,103 C304.489866,103 296,111.495164 296,121.988144 C296,132.498908 304.489866,141 315,141 C325.50421,141 334,132.498908 334,121.988144 C334,111.495164 325.50421,103 315,103 L315,103 Z" id="Fill-14"></path>
                <path d="M315.012473,106 C310.587153,106 307,109.571652 307,114.002498 C307,118.44833 310.587153,122 315.012473,122 C319.412847,122 323,118.428348 323,114.002498 C323,109.571652 319.432803,106 315.012473,106 L315.012473,106 Z" id="Fill-15"></path>
                <path d="M208.011856,209 C197.495164,209 189,217.513564 189,228 C189,238.480511 197.495164,247 208.011856,247 C218.498908,247 227,238.480511 227,228 C227,217.513564 218.498908,209 208.011856,209 L208.011856,209 Z" id="Fill-16"></path>
                <path d="M202.012473,220 C197.587153,220 194,223.582164 194,227.987527 C194,232.412847 197.587153,236 202.012473,236 C206.417836,236 210,232.412847 210,227.987527 C210,223.60212 206.417836,220 202.012473,220 L202.012473,220 Z" id="Fill-17"></path>
                <polygon id="Fill-18" points="256.261062 237 224 237 224 225.127549 251.247791 225.127549 372.550537 92 381 100.129791"></polygon>
                <path d="M80.0118565,202 C69.4951638,202 61,210.495164 61,220.988144 C61,231.475195 69.5188768,240 80.0118565,240 C90.498908,240 99,231.475195 99,220.988144 C99,210.518877 90.498908,202 80.0118565,202 L80.0118565,202 Z" id="Fill-19"></path>
                <path d="M242.988144,370 C232.495164,370 224,378.495164 224,389.011856 C224,399.475195 232.495164,408 242.988144,408 C253.498908,408 262,399.475195 262,389.011856 C262,378.518877 253.498908,370 242.988144,370 L242.988144,370 Z" id="Fill-20"></path>
            </g>
        </g>
    </g>
</svg>